<svg xmlns="http://www.w3.org/2000/svg" viewBox="0 0 500 500"><g id="freepik--background-simple--inject-30"><path d="M394.09,62.65c-15.21-14.21-31.63-26.72-48.54-33.2-22.66-8.68-47.51-9.29-71.08-6.71C184.83,32.53,49.6,133.1,20.23,240.8S31.82,421.47,118.37,458s170,34.71,223.32,18.69S473.06,418.8,475.38,328.91c1.14-44,9.62-88.29,3.41-132.26C473.35,158,453.42,126,429.38,99.4,418.75,87.65,406.84,74.55,394.09,62.65Z" style="fill:#F7CAC9"></path><path d="M394.09,62.65c-15.21-14.21-31.63-26.72-48.54-33.2-22.66-8.68-47.51-9.29-71.08-6.71C184.83,32.53,49.6,133.1,20.23,240.8S31.82,421.47,118.37,458s170,34.71,223.32,18.69S473.06,418.8,475.38,328.91c1.14-44,9.62-88.29,3.41-132.26C473.35,158,453.42,126,429.38,99.4,418.75,87.65,406.84,74.55,394.09,62.65Z" style="fill:#fff;opacity:0.7000000000000001"></path></g><g id="freepik--Lines--inject-30"><line x1="132.68" y1="122.63" x2="148.78" y2="126.96" style="fill:none;stroke:#263238;stroke-linecap:round;stroke-linejoin:round"></line><line x1="151.25" y1="149.25" x2="143.2" y2="150.49" style="fill:none;stroke:#263238;stroke-linecap:round;stroke-linejoin:round"></line><line x1="154.35" y1="171.54" x2="137.63" y2="181.45" style="fill:none;stroke:#263238;stroke-linecap:round;stroke-linejoin:round"></line><line x1="162.4" y1="107.15" x2="167.35" y2="115.2" style="fill:none;stroke:#263238;stroke-linecap:round;stroke-linejoin:round"></line></g><g id="freepik--musical-notes--inject-30"><path d="M123.06,129.91a1.44,1.44,0,0,0-.57-1.15,1.46,1.46,0,0,0-1.26-.22l-15,4.44a1.43,1.43,0,0,0-1,1.36v17.15a4.36,4.36,0,0,0-1.58-.31A4.41,4.41,0,1,0,108,156h.06V142.89l12.13-3.59v7.57a4.49,4.49,0,0,0-1.55-.29,4.41,4.41,0,1,0,4.4,4.4V129.91Zm-2.85,6.42-12.13,3.59v-4.51l12.13-3.6Z" style="fill:#263238"></path><path d="M126.81,164.65a.91.91,0,0,0-1.17-.87l-9.54,2.83a.89.89,0,0,0-.65.87V178.4a2.8,2.8,0,1,0,1.78,2.86h0v-8.33l7.72-2.29v4.82a2.72,2.72,0,0,0-1-.19,2.81,2.81,0,1,0,2.81,2.81V164.65ZM125,168.74,117.27,171v-2.88l7.72-2.29Z" style="fill:#263238"></path></g><g id="freepik--Boombox--inject-30"><g style="opacity:0.30000000000000004"><circle cx="62.74" cy="194.15" r="32.81" style="fill:none;stroke:#000;stroke-linecap:round;stroke-linejoin:round"></circle><circle cx="62.74" cy="194.15" r="26.94" transform="translate(-42.93 19.61) rotate(-13.28)" style="fill:none;stroke:#000;stroke-linecap:round;stroke-linejoin:round"></circle><circle cx="105.44" cy="304.31" r="77.7" transform="translate(-184.3 163.69) rotate(-45)" style="fill:none;stroke:#000;stroke-linecap:round;stroke-linejoin:round"></circle><circle cx="105.44" cy="304.31" r="68.81" transform="translate(-64.54 30.76) rotate(-12.75)" style="fill:none;stroke:#000;stroke-linecap:round;stroke-linejoin:round"></circle><circle cx="105.44" cy="304.31" r="9.58" transform="translate(-215.58 278.38) rotate(-66.27)" style="fill:none;stroke:#000;stroke-linecap:round;stroke-linejoin:round"></circle><circle cx="62.74" cy="194.15" r="9.13" transform="translate(-140.65 177.82) rotate(-67.5)" style="fill:none;stroke:#000;stroke-linecap:round;stroke-linejoin:round"></circle><circle cx="440.92" cy="194.15" r="32.81" style="fill:none;stroke:#000;stroke-linecap:round;stroke-linejoin:round"></circle><circle cx="440.92" cy="194.15" r="26.94" transform="translate(151.69 579.45) rotate(-76.87)" style="fill:none;stroke:#000;stroke-linecap:round;stroke-linejoin:round"></circle><circle cx="398.21" cy="304.31" r="77.7" transform="translate(-98.55 370.71) rotate(-45)" style="fill:none;stroke:#000;stroke-linecap:round;stroke-linejoin:round"></circle><circle cx="398.21" cy="304.31" r="68.81" transform="translate(-98.55 370.71) rotate(-45)" style="fill:none;stroke:#000;stroke-linecap:round;stroke-linejoin:round"></circle><circle cx="398.21" cy="304.31" r="9.58" transform="translate(-79.77 153.62) rotate(-19.89)" style="fill:none;stroke:#000;stroke-linecap:round;stroke-linejoin:round"></circle><circle cx="440.92" cy="194.15" r="9.13" transform="translate(-40.83 198.63) rotate(-24.3)" style="fill:none;stroke:#000;stroke-linecap:round;stroke-linejoin:round"></circle><rect x="135.35" y="170.6" width="230.89" height="23.21" style="fill:none;stroke:#000;stroke-linecap:round;stroke-linejoin:round"></rect><rect x="18.88" y="154.02" width="463.82" height="235.48" style="fill:none;stroke:#000;stroke-linecap:round;stroke-linejoin:round"></rect><rect x="211.38" y="197.86" width="80.43" height="180.31" style="fill:none;stroke:#000;stroke-linecap:round;stroke-linejoin:round"></rect><rect x="211.38" y="267.87" width="80.43" height="110.3" style="fill:none;stroke:#000;stroke-linecap:round;stroke-linejoin:round"></rect><rect x="211.38" y="259.82" width="80.43" height="110.3" style="fill:none;stroke:#000;stroke-linecap:round;stroke-linejoin:round"></rect><rect x="211.38" y="352.68" width="80.43" height="25.49" style="fill:none;stroke:#000;stroke-linecap:round;stroke-linejoin:round"></rect><rect x="216.34" y="213.16" width="70.51" height="15.44" style="fill:none;stroke:#000;stroke-linecap:round;stroke-linejoin:round"></rect><rect x="221.99" y="281.3" width="58.09" height="25.59" style="fill:none;stroke:#000;stroke-linecap:round;stroke-linejoin:round"></rect><circle cx="235.82" cy="293.06" r="4.84" style="fill:none;stroke:#000;stroke-linecap:round;stroke-linejoin:round"></circle><path d="M271.78,293.06a4.84,4.84,0,1,0-4.84,4.84A4.84,4.84,0,0,0,271.78,293.06Z" style="fill:none;stroke:#000;stroke-linecap:round;stroke-linejoin:round"></path><rect x="218.53" y="359.44" width="8.67" height="9.68" style="fill:none;stroke:#000;stroke-linecap:round;stroke-linejoin:round"></rect><rect x="227.92" y="359.44" width="8.67" height="9.68" style="fill:none;stroke:#000;stroke-linecap:round;stroke-linejoin:round"></rect><rect x="237.31" y="359.44" width="8.67" height="9.68" style="fill:none;stroke:#000;stroke-linecap:round;stroke-linejoin:round"></rect><rect x="246.7" y="359.44" width="8.67" height="9.68" style="fill:none;stroke:#000;stroke-linecap:round;stroke-linejoin:round"></rect><rect x="256.09" y="359.44" width="8.67" height="9.68" style="fill:none;stroke:#000;stroke-linecap:round;stroke-linejoin:round"></rect><rect x="265.48" y="359.44" width="8.67" height="9.68" style="fill:none;stroke:#000;stroke-linecap:round;stroke-linejoin:round"></rect><rect x="274.87" y="359.44" width="8.67" height="9.68" style="fill:none;stroke:#000;stroke-linecap:round;stroke-linejoin:round"></rect><rect x="214.94" y="241.2" width="6.92" height="6.92" style="fill:none;stroke:#000;stroke-linecap:round;stroke-linejoin:round"></rect><rect x="226.01" y="241.2" width="6.92" height="6.92" style="fill:none;stroke:#000;stroke-linecap:round;stroke-linejoin:round"></rect><rect x="237.07" y="241.2" width="6.92" height="6.92" style="fill:none;stroke:#000;stroke-linecap:round;stroke-linejoin:round"></rect><rect x="248.14" y="241.2" width="6.92" height="6.92" style="fill:none;stroke:#000;stroke-linecap:round;stroke-linejoin:round"></rect><rect x="259.2" y="241.2" width="6.92" height="6.92" style="fill:none;stroke:#000;stroke-linecap:round;stroke-linejoin:round"></rect><rect x="270.26" y="241.2" width="6.92" height="6.92" style="fill:none;stroke:#000;stroke-linecap:round;stroke-linejoin:round"></rect><rect x="281.33" y="241.2" width="6.92" height="6.92" style="fill:none;stroke:#000;stroke-linecap:round;stroke-linejoin:round"></rect><line x1="189.77" y1="235.7" x2="189.77" y2="389.18" style="fill:none;stroke:#000;stroke-linecap:round;stroke-linejoin:round"></line><line x1="189.77" y1="194.17" x2="189.77" y2="211.28" style="fill:none;stroke:#000;stroke-linecap:round;stroke-linejoin:round"></line><circle cx="175.04" cy="223.15" r="19.12" transform="translate(-98.48 298.14) rotate(-67.22)" style="fill:none;stroke:#000;stroke-linecap:round;stroke-linejoin:round"></circle><circle cx="175.04" cy="223.15" r="12.38" transform="translate(-33.82 31.29) rotate(-9.32)" style="fill:none;stroke:#000;stroke-linecap:round;stroke-linejoin:round"></circle><line x1="313.1" y1="235.7" x2="313.1" y2="389.18" style="fill:none;stroke:#000;stroke-linecap:round;stroke-linejoin:round"></line><line x1="313.1" y1="194.17" x2="313.1" y2="211.28" style="fill:none;stroke:#000;stroke-linecap:round;stroke-linejoin:round"></line><circle cx="327.83" cy="223.15" r="19.12" transform="translate(-60.83 144.34) rotate(-22.78)" style="fill:none;stroke:#000;stroke-linecap:round;stroke-linejoin:round"></circle><circle cx="327.83" cy="223.15" r="12.38" transform="translate(55.23 511.18) rotate(-80.82)" style="fill:none;stroke:#000;stroke-linecap:round;stroke-linejoin:round"></circle><polyline points="61.36 113.55 61.36 95.48 67.8 95.48 437.81 95.48 444.25 95.48" style="fill:none;stroke:#000;stroke-linecap:round;stroke-linejoin:round"></polyline><line x1="437.81" y1="113.55" x2="67.79" y2="113.55" style="fill:none;stroke:#000;stroke-linecap:round;stroke-linejoin:round"></line><rect x="61.36" y="95.48" width="6.44" height="58.72" style="fill:none;stroke:#000;stroke-linecap:round;stroke-linejoin:round"></rect><rect x="437.81" y="95.48" width="6.44" height="58.73" style="fill:none;stroke:#000;stroke-linecap:round;stroke-linejoin:round"></rect><circle cx="302.51" cy="305.34" r="8.11" style="fill:none;stroke:#000;stroke-linecap:round;stroke-linejoin:round"></circle><circle cx="302.51" cy="305.34" r="5.25" style="fill:none;stroke:#000;stroke-linecap:round;stroke-linejoin:round"></circle><circle cx="302.51" cy="341.43" r="8.11" transform="translate(-83.07 585.19) rotate(-80.76)" style="fill:none;stroke:#000;stroke-linecap:round;stroke-linejoin:round"></circle><path d="M297.26,341.43a5.26,5.26,0,1,1,5.25,5.26A5.25,5.25,0,0,1,297.26,341.43Z" style="fill:none;stroke:#000;stroke-linecap:round;stroke-linejoin:round"></path><circle cx="200.42" cy="305.34" r="8.11" style="fill:none;stroke:#000;stroke-linecap:round;stroke-linejoin:round"></circle><circle cx="200.42" cy="305.34" r="5.25" style="fill:none;stroke:#000;stroke-linecap:round;stroke-linejoin:round"></circle><circle cx="200.42" cy="341.43" r="8.11" transform="translate(-168.77 484.42) rotate(-80.76)" style="fill:none;stroke:#000;stroke-linecap:round;stroke-linejoin:round"></circle><path d="M195.17,341.43a5.25,5.25,0,1,1,5.25,5.26A5.25,5.25,0,0,1,195.17,341.43Z" style="fill:none;stroke:#000;stroke-linecap:round;stroke-linejoin:round"></path></g></g><g id="freepik--Shadow--inject-30"><ellipse cx="251.75" cy="454.23" rx="89.94" ry="10.12" style="fill:#263238;stroke:#263238;stroke-linecap:round;stroke-linejoin:round"></ellipse></g><g id="freepik--Character--inject-30"><path d="M299.42,458.47c-8-1-14.25-6.48-15.55-10.62s-2.85-3.37-4.41-6,.27-12.7.27-12.7S271,398.65,268,389.72s-4.7-29.38-4.7-29.38-.94-4.23-9.16-22.8a186.22,186.22,0,0,1-11.52-35.24l-4.46-8.7L229.19,350s-.47,25.85-.95,38.07S225.43,429,226.12,432c.08.33.18.67.29,1,.9,3,2.8,7,3,9.53.24,2.83-3.3,4.23-6.35,6.35s-4.23,5.41-9.87,7.28-11.28,1.18-14.33-.23-.47-6.58.94-8.94S209.2,440.48,212,437a18.52,18.52,0,0,0,3.52-7.52s-5.87-28.67-8.46-40.65,2.59-29.61,1.65-32.9a188.61,188.61,0,0,1-7.76-41.6c-1.4-21.38,5.88-45.59,5.88-45.59l2.82-5.17L275,279.27A189.16,189.16,0,0,1,280.18,303c1.41,10.81,1.41,53.35,1.41,53.35s.7,1.64,3.52,9.4,1.88,23,2.36,26.31,2.36,33.25,2.36,33.25,1.29,4.4,3.37,6.73,9.06,10.63,10.88,15S307.44,459.51,299.42,458.47Z" style="fill:#263238;stroke:#263238;stroke-linecap:round;stroke-linejoin:round"></path><path d="M213.2,456.22c5.64-1.87,6.82-5.17,9.87-7.28s6.59-3.52,6.35-6.35c-.21-2.52-2.11-6.52-3-9.53-.11-.37-.21-.71-.29-1-.23-1-.12-4.92.14-10.11-4.48,1.62-9,.64-12.41-.77l1.7,8.29A18.52,18.52,0,0,1,212,437c-2.83,3.53-10.81,7.76-12.22,10.1s-4,7.53-.94,8.94S207.57,458.11,213.2,456.22Z" style="fill:#fff;stroke:#263238;stroke-linecap:round;stroke-linejoin:round"></path><path d="M279.73,429.19s-1.82,10.11-.27,12.7,3.12,1.81,4.41,6,7.52,9.59,15.55,10.62,6.47-7,4.66-11.4-8.81-12.7-10.88-15-3.37-6.73-3.37-6.73-.16-2.62-.41-6.39a24.4,24.4,0,0,1-12.42.78C278.59,425.21,279.73,429.19,279.73,429.19Z" style="fill:#fff;stroke:#263238;stroke-linecap:round;stroke-linejoin:round"></path><path d="M223.07,448.94c-3,2.11-4.23,5.41-9.87,7.28s-11.28,1.18-14.33-.23c-1.27-.59-1.56-1.82-1.37-3.23a16.81,16.81,0,0,1,2.31-5.71c1.41-2.34,9.39-6.57,12.22-10.1a18.52,18.52,0,0,0,3.52-7.52,7,7,0,0,1,2.56.73c1.77.76,3.29,5.08,3.29,5.08a33.62,33.62,0,0,0,5-2.18c.69,2.3,2,5.18,2.61,7.54a11.29,11.29,0,0,1,.4,2C229.66,445.42,226.12,446.82,223.07,448.94Z" style="fill:#fff;stroke:#263238;stroke-linecap:round;stroke-linejoin:round"></path><path d="M305.54,453.69c-.06,3-1.51,5.38-6.12,4.78-8-1-14.25-6.48-15.55-10.62s-2.85-3.37-4.41-6a5.49,5.49,0,0,1-.55-2.15c-.38-3.89.82-10.55.82-10.55l3.17,2.57s0-1.68,2-4.47a4.74,4.74,0,0,1,5-2s1.29,4.4,3.37,6.73,9.06,10.63,10.88,15A17.88,17.88,0,0,1,305.54,453.69Z" style="fill:#fff;stroke:#263238;stroke-linecap:round;stroke-linejoin:round"></path><path d="M223.07,448.94c-3,2.11-4.23,5.41-9.87,7.28s-11.28,1.18-14.33-.23c-1.27-.59-1.56-1.82-1.37-3.23a15.83,15.83,0,0,0,11.22,1.74c8.62-1.51,12.17-6.59,15-9.13,1.64-1.5,3.82-3.44,5.34-4.77a11.29,11.29,0,0,1,.4,2C229.66,445.42,226.12,446.82,223.07,448.94Z" style="fill:#fff;stroke:#263238;stroke-linecap:round;stroke-linejoin:round"></path><path d="M305.54,453.69c-.06,3-1.51,5.38-6.12,4.78-8-1-14.25-6.48-15.55-10.62s-2.85-3.37-4.41-6a5.49,5.49,0,0,1-.55-2.15c1.87,1.08,5.24,3.26,6.23,5.43,1.4,3.08,3.91,8.67,10.63,10.07A13.53,13.53,0,0,0,305.54,453.69Z" style="fill:#fff;stroke:#263238;stroke-linecap:round;stroke-linejoin:round"></path><path d="M228.36,201.06S215,202,198.49,189.35s-18.88-17.93-18.88-17.93l66.2-11Z" style="fill:#fff;stroke:#263238;stroke-linecap:round;stroke-linejoin:round"></path><path d="M215.08,184.46a29.06,29.06,0,0,1-2.25-3.48" style="fill:none;stroke:#263238;stroke-linecap:round;stroke-linejoin:round"></path><path d="M206.43,185.87c9.13,8.42,21.93,15.19,21.93,15.19s-6.55-7.73-11.23-13.84" style="fill:none;stroke:#263238;stroke-linecap:round;stroke-linejoin:round"></path><path d="M202.79,182.18c.55.62,1.12,1.23,1.72,1.83" style="fill:none;stroke:#263238;stroke-linecap:round;stroke-linejoin:round"></path><path d="M236.73,181.94,208.05,272s5.5,8.13,26,13.15,32.27,4.54,32.27,4.54l13.14-111.61-39.2-5.5Z" style="fill:#fff;stroke:#263238;stroke-linecap:round;stroke-linejoin:round"></path><path d="M274.47,221l.21-1.82A288.05,288.05,0,0,1,229,206.38l-.56,1.74A290,290,0,0,0,274.47,221Z" style="fill:#263238"></path><path d="M273.4,230l.21-1.83A287.23,287.23,0,0,1,226.21,215l-.56,1.75A289.16,289.16,0,0,0,273.4,230Z" style="fill:#263238"></path><path d="M275.53,211.87l.22-1.83a287.3,287.3,0,0,1-44.05-12.28l-.56,1.74A289.21,289.21,0,0,0,275.53,211.87Z" style="fill:#263238"></path><path d="M272.33,239.1l.21-1.82a286.36,286.36,0,0,1-49.07-13.67l-.56,1.75A288.69,288.69,0,0,0,272.33,239.1Z" style="fill:#263238"></path><path d="M234.44,189.13l-.56,1.75a289,289,0,0,0,42.72,11.9l.22-1.82A286.87,286.87,0,0,1,234.44,189.13Z" style="fill:#263238"></path><path d="M271.26,248.18l.21-1.83a286.82,286.82,0,0,1-50.75-14.12l-.55,1.74A287.93,287.93,0,0,0,271.26,248.18Z" style="fill:#263238"></path><path d="M270.19,257.24l.21-1.81A286.18,286.18,0,0,1,218,240.84l-.55,1.75A288.68,288.68,0,0,0,270.19,257.24Z" style="fill:#263238"></path><path d="M268.06,275.38l.21-1.83a286.34,286.34,0,0,1-55.77-15.5L212,259.8A288.61,288.61,0,0,0,268.06,275.38Z" style="fill:#263238"></path><path d="M267,284.44l.21-1.82a285.8,285.8,0,0,1-57.43-16l-.56,1.75A287.79,287.79,0,0,0,267,284.44Z" style="fill:#263238"></path><path d="M269.12,266.31l.22-1.82a286.34,286.34,0,0,1-54.1-15l-.55,1.74A287.73,287.73,0,0,0,269.12,266.31Z" style="fill:#263238"></path><path d="M249.79,184.09a33.56,33.56,0,0,0,26,7.92c15.83-2,8.91-26.39,8.91-26.39L254.08,164Z" style="fill:#263238;stroke:#263238;stroke-linecap:round;stroke-linejoin:round"></path><path d="M254.42,158.52l-1.92,18.16s0,12.19,22.47,11.95.72-32.5.72-32.5S259.67,159,254.42,158.52Z" style="fill:#fff;stroke:#263238;stroke-linecap:round;stroke-linejoin:round"></path><path d="M208,109.73l-.87,8.33,15.72-.69A13.1,13.1,0,0,1,226,114.5c1.65-1,7.21-1.73,7.9-2.6s-2.69-1.74-5.38-1-3.73,1.12-4.51,1.21-2.52-2.69-2.52-2.69Z" style="fill:#fff;stroke:#263238;stroke-linecap:round;stroke-linejoin:round"></path><polygon points="235.53 117.61 230.89 108.47 229.58 110.35 234.08 119.21 235.53 117.61" style="fill:#263238;stroke:#263238;stroke-linecap:round;stroke-linejoin:round"></polygon><polygon points="197.73 110.88 230.54 108.56 229.67 110.44 196.42 112.77 197.73 110.88" style="fill:#263238;stroke:#263238;stroke-linecap:round;stroke-linejoin:round"></polygon><polygon points="202.38 120.02 197.73 110.88 196.42 112.77 200.92 121.62 202.38 120.02" style="fill:#263238;stroke:#263238;stroke-linecap:round;stroke-linejoin:round"></polygon><polygon points="171.48 119.8 177.94 178.83 270.19 164.01 264.36 113.93 171.48 119.8" style="fill:#c9c9c9;stroke:#263238;stroke-linecap:round;stroke-linejoin:round"></polygon><polygon points="210.63 173.58 247.95 167.59 240.06 115.46 204.13 117.73 210.63 173.58" style="fill:#fff;stroke:#263238;stroke-linecap:round;stroke-linejoin:round"></polygon><ellipse cx="191.34" cy="144.56" rx="14.23" ry="15.97" transform="translate(-14.41 21.38) rotate(-6.16)" style="fill:#263238;stroke:#263238;stroke-linecap:round;stroke-linejoin:round"></ellipse><path d="M195.84,144.07a4.56,4.56,0,1,1-5-4.57A4.83,4.83,0,0,1,195.84,144.07Z" style="fill:#fff;stroke:#263238;stroke-linecap:round;stroke-linejoin:round"></path><polygon points="240.06 115.46 204.13 117.73 206.6 139 243.03 135.08 240.06 115.46" style="fill:#F7CAC9;stroke:#263238;stroke-linecap:round;stroke-linejoin:round"></polygon><polygon points="205.56 128.32 241.37 125.34 240.06 115.46 204.13 117.73 205.56 128.32" style="fill:#263238;stroke:#263238;stroke-linecap:round;stroke-linejoin:round"></polygon><polygon points="214.42 138.31 217.62 164.74 238.81 161.69 235.11 136.02 214.42 138.31" style="fill:#F7CAC9;stroke:#263238;stroke-linecap:round;stroke-linejoin:round"></polygon><polygon points="216.75 156.9 237.82 154.15 235.11 136.02 214.42 138.31 216.75 156.9" style="fill:#263238;stroke:#263238;stroke-linecap:round;stroke-linejoin:round"></polygon><polygon points="217.62 164.74 217.19 161.33 238.38 158.28 238.81 161.69 217.62 164.74" style="fill:#263238;stroke:#263238;stroke-linecap:round;stroke-linejoin:round"></polygon><polygon points="219.36 145.57 219.65 148.48 233.03 146.91 232.59 144.01 219.36 145.57" style="fill:#fff;stroke:#263238;stroke-linecap:round;stroke-linejoin:round"></polygon><polygon points="171.48 119.8 157.81 123.22 163.03 176.93 177.94 178.83 171.48 119.8" style="fill:#263238;stroke:#263238;stroke-linecap:round;stroke-linejoin:round"></polygon><circle cx="211.67" cy="132.51" r="1.74" style="fill:#fff;stroke:#263238;stroke-linecap:round;stroke-linejoin:round"></circle><circle cx="218.05" cy="131.93" r="1.74" style="fill:#fff;stroke:#263238;stroke-linecap:round;stroke-linejoin:round"></circle><circle cx="224.44" cy="131.35" r="1.74" style="fill:#fff;stroke:#263238;stroke-linecap:round;stroke-linejoin:round"></circle><circle cx="230.83" cy="130.77" r="1.74" style="fill:#fff;stroke:#263238;stroke-linecap:round;stroke-linejoin:round"></circle><path d="M208,109.73s-.08-3,2.09-3.13,3.56,2.87,4.16,4.08.26,3.47-.34,3.82-1.31.87-1.74.26a23.75,23.75,0,0,1-1.56-4.34C210.52,109.9,208,109.73,208,109.73Z" style="fill:#fff;stroke:#263238;stroke-linecap:round;stroke-linejoin:round"></path><path d="M211.47,106.77a16.24,16.24,0,0,1,3.65-.69c.61.17,2.26,3.3,2.35,4.52a4.23,4.23,0,0,1-1.13,3c-.52.52-1.91-.09-1.91-.09a6.47,6.47,0,0,0-.18-2.78A29.58,29.58,0,0,0,211.47,106.77Z" style="fill:#fff;stroke:#263238;stroke-linecap:round;stroke-linejoin:round"></path><path d="M215.12,106.08s2.78-1,3.65-.26,2.26,4.43,2,5.38a2.62,2.62,0,0,1-1.91,2.09,1.42,1.42,0,0,1-1.47-.52,11.59,11.59,0,0,0,.09-3.13C217.2,109,215.12,106.08,215.12,106.08Z" style="fill:#fff;stroke:#263238;stroke-linecap:round;stroke-linejoin:round"></path><path d="M218.77,105.82s1.73-1.22,2.69-.09,2.43,3.91,2.08,5.56-1.21,1.65-2,1.74a3,3,0,0,1-1.48-.26,4.12,4.12,0,0,0,.61-2.26C220.59,109.29,218.77,105.82,218.77,105.82Z" style="fill:#fff;stroke:#263238;stroke-linecap:round;stroke-linejoin:round"></path><polygon points="194.91 265.83 193.23 271.32 201.12 288.77 202.31 286.62 194.91 265.83" style="fill:#fff;stroke:#263238;stroke-linecap:round;stroke-linejoin:round"></polygon><path d="M244.62,189.83S220,255.07,214.26,263.92s-11.95,22.7-11.95,22.7-5.73-13.62-7.88-18.16-.72-5,1.67-10,27.25-52.1,29.16-60.23,4.54-14.1,11.47-16.25S244.62,189.83,244.62,189.83Z" style="fill:#F7CAC9;stroke:#263238;stroke-linecap:round;stroke-linejoin:round"></path><path d="M231.47,203.21l-9.7,35.88a1.43,1.43,0,0,0,1.59,1.79h0a1.43,1.43,0,0,0,1.17-1.07L233.62,203Z" style="fill:#fff;stroke:#263238;stroke-linecap:round;stroke-linejoin:round"></path><path d="M253.35,298.78s-.95,4.27.24,5,29.42,5,35.82,4.75,7.59-3.09,8.07-5.7,5,0-12.34-2.37-28.71-4.27-28.71-4.27A5.12,5.12,0,0,0,253.35,298.78Z" style="fill:#fff;stroke:#263238;stroke-linecap:round;stroke-linejoin:round"></path><path d="M268.06,205.3s-9.25,58.84-11.63,72.6-3.56,20.17-3.08,20.88,24.91,5.93,33.93,5.46,11.86,0,13.05-5,10.91-78.54,6.64-96.33-5.93-18-17.08-18S268.06,205.3,268.06,205.3Z" style="fill:#F7CAC9;stroke:#263238;stroke-linecap:round;stroke-linejoin:round"></path><path d="M272,209.35,268.23,250A1.75,1.75,0,0,0,270,252h0a1.74,1.74,0,0,0,1.74-1.68l1.64-41.3Z" style="fill:#fff;stroke:#263238;stroke-linecap:round;stroke-linejoin:round"></path><path d="M294.87,189.17a11,11,0,0,1,5.93,1.42c2.61,1.66,4.75,8.54,5.93,8.07s3.32-10.68-.47-16.61-8.07-8.07-10.2-5.7S292.19,187.65,294.87,189.17Z" style="fill:#fff;stroke:#263238;stroke-linecap:round;stroke-linejoin:round"></path><path d="M247.5,130.25s3.36,8.79-3.67,22.22-21,34.54-21.27,44.29,8,10.71,14.39,6.39,8.8-7.35,8.8-7.35-1.12,5.43,2.23,6.07,4.16-7,5.6-15.82,4.8-23.83,5-24.62-5.12-4.16-6.88-11.68,2.08-16.62,1.44-19.34S248.14,129.13,247.5,130.25Z" style="fill:#263238;stroke:#263238;stroke-linecap:round;stroke-linejoin:round"></path><path d="M245.9,131.22s.83,6.35,1.17,10.06-1,8.81,2.67,13.56,6.95,9.85,9.74,11.48,4.28,2,6.37.81,8.11-5.1,9.74-7.65,4.29-17.62,3.94-22.6a18.27,18.27,0,0,0-3.83-9.16s-10.89-6.26-17.85-4.75S245.9,131.22,245.9,131.22Z" style="fill:#fff;stroke:#263238;stroke-linecap:round;stroke-linejoin:round"></path><path d="M256.88,148.21a4.13,4.13,0,0,0,2.47,1.18" style="fill:none;stroke:#263238;stroke-linecap:round;stroke-linejoin:round"></path><path d="M257.14,153.42a13,13,0,0,0,12.1-4" style="fill:none;stroke:#263238;stroke-linecap:round;stroke-linejoin:round"></path><line x1="268.07" y1="149" x2="270.94" y2="150.17" style="fill:none;stroke:#263238;stroke-linecap:round;stroke-linejoin:round"></line><path d="M277.72,129.13s-1.6,28.62-4.8,52-8.95,27.34-6.23,28.78,11.67,2.4,20.3-4.16,10.08-13.59,10.56-15,3.67-7,1.75-15-5.11-19-7-25.1a33,33,0,0,1-1.78-10.05s0-7.69-3.66-10.25S277.72,129.13,277.72,129.13Z" style="fill:#263238;stroke:#263238;stroke-linecap:round;stroke-linejoin:round"></path><path d="M245.9,131.22a25.84,25.84,0,0,1,19.88-3.79c11.63,2.48,24.71,13.07,24.71,13.07s.26-8.76-.26-10.85a22.37,22.37,0,0,0-1.83-4.44s6.4,1.57,6.67-.27-2.62-5-4.58-6.53-8.89-8.76-11.51-9.16-17-.65-22.23,2.36S243.68,122.2,245.9,131.22Z" style="fill:#8c8c8c;stroke:#263238;stroke-linecap:round;stroke-linejoin:round"></path><path d="M277,135c-.12-.78-2.62-1.6-6.63-1.94s-8.54,2.18-8.54,2.18c-1.39.77-3.06.39-4.55.19,0,0-4.84-1.83-8.76-.91s-6.28,2.09-6.28,2.88a5.57,5.57,0,0,0,.92,2.22c.26.52,1.43,5.62,4.18,6.28s8.63-.4,9.68-2.36a15,15,0,0,0,1.3-6.14c0-.46,2.69-.41,2.76-.07,0,0,.87,4.1,2.19,5.89s7.29,2,9.91.93,3.05-6.26,3.23-6.82A5.6,5.6,0,0,0,277,135Z" style="fill:#263238;stroke:#263238;stroke-linecap:round;stroke-linejoin:round"></path><path d="M288.9,257.49a32.54,32.54,0,0,0-1.21,4.64" style="fill:#fff;stroke:#263238;stroke-linecap:round;stroke-linejoin:round"></path><path d="M312.92,213.7s1.9-12.5,1.9-14.58,1.13-10.41,1.89-11.93,2.27-.76,2.46.76-.38,8.14-.38,8.14a3,3,0,0,1,2.84-.76l1.52.57s1.32-2.46,3.41-1.32,2.27,6.62,2.27,6.62a64.38,64.38,0,0,1,6.63-8.14c2.84-2.65,4.73-2.65,3.78-.76s-9.27,13.83-10.41,16.48-2.65,7.57-2.65,7.57Z" style="fill:#fff;stroke:#263238;stroke-linecap:round;stroke-linejoin:round"></path><path d="M323.15,195.9s.33,4.68-.13,5.93" style="fill:none;stroke:#263238;stroke-linecap:round;stroke-linejoin:round"></path><path d="M318.79,196.09a31.86,31.86,0,0,0-.88,4.49" style="fill:none;stroke:#263238;stroke-linecap:round;stroke-linejoin:round"></path><polygon points="310.65 220.52 312.89 211.43 328.13 215.03 326.51 228.28 310.65 220.52" style="fill:#fff;stroke:#263238;stroke-linecap:round;stroke-linejoin:round"></polygon><path d="M306.86,204.61s-4.73-2.27-10,5.11-11.55,37.5-10.41,47.53.94,16.28,9.46,19.31,19.32-1.13,25-6.43S325,248,325,245.51s4.55-14.2,4.17-17.23-19.5-9.47-19.5-9.47S309.52,206.69,306.86,204.61Z" style="fill:#fff;stroke:#263238;stroke-linecap:round;stroke-linejoin:round"></path><path d="M309.71,218.81s-6.82-.75-8.34,1.71-4.35,22.15-8.14,27.83a37.41,37.41,0,0,0-3.5,6.83" style="fill:#fff;stroke:#263238;stroke-linecap:round;stroke-linejoin:round"></path><path d="M295.13,244.94s-2.28,14.2-.38,19.13" style="fill:none;stroke:#263238;stroke-linecap:round;stroke-linejoin:round"></path><path d="M318.49,253.64a20.92,20.92,0,0,0,2.2,3" style="fill:none;stroke:#263238;stroke-linecap:round;stroke-linejoin:round"></path><path d="M313.87,243.81a70.81,70.81,0,0,0,3.25,7.38" style="fill:none;stroke:#263238;stroke-linecap:round;stroke-linejoin:round"></path><path d="M325,245.51s-2.08,5.87-2.08,9.85" style="fill:none;stroke:#263238;stroke-linecap:round;stroke-linejoin:round"></path><line x1="209.82" y1="165.65" x2="217.62" y2="164.73" style="fill:none;stroke:#263238;stroke-linecap:round;stroke-linejoin:round"></line><polygon points="204.72 120.89 240.43 118.58 240.74 121.5 205.1 124.11 204.72 120.89" style="fill:#F7CAC9;stroke:#263238;stroke-linecap:round;stroke-linejoin:round"></polygon></g></svg>